<svg xmlns="http://www.w3.org/2000/svg" width="220.101" height="141.299" viewBox="0 0 220.101 141.299"><defs><style>.a{fill:#454b5e;}.b,.d{fill:none;stroke-linecap:round;stroke-linejoin:round;stroke-width:2px;}.b{stroke:#454c5e;}.c{fill:#53a1d9;}.d{stroke:#c6c6c6;}.e{fill:#ce4c42;}</style></defs><g transform="translate(-154 -344)"><path class="a" d="M173,141.656c1.837-.922,3.668-1.91,6.123-.147-4.949.291-6.43,4.019-8.335,7.395-.657,1.163-1.875.944-2.937.335-2.931-1.682-5.919-2.124-9.01-.429.069-3.505,2.808-4.8,6.6-3.13l-.025-.011c2.281.455,4.113,0,5.18-2.334C171.036,142.376,172.07,142.037,173,141.656Z" transform="translate(42.567 208.847)"/><path class="a" d="M141.662,133.237c1.216-.61,2.429-1.264,4.054-.1-3.276.193-4.257,2.661-5.518,4.9-.435.77-1.242.625-1.944.222a5.732,5.732,0,0,0-5.966-.284c.046-2.32,1.859-3.18,4.372-2.071l-.017-.007c1.511.3,2.724,0,3.429-1.545C140.362,133.713,141.046,133.489,141.662,133.237Z" transform="translate(51.349 211.506)"/><path class="b" d="M163.667,204.2v-4.906a3.794,3.794,0,0,1,3.794-3.794H272.534a3.794,3.794,0,0,1,3.794,3.794V204.2" transform="translate(40.971 190.668)"/><path class="b" d="M125,258.25h22.084a3.8,3.8,0,0,1,3.795,3.794V289.76a3.794,3.794,0,0,0,3.794,3.794h84.94" transform="translate(53.759 169.915)"/><path class="b" d="M302.167,282.227h16.172a3.794,3.794,0,0,0,3.794-3.794V224" transform="translate(-4.834 181.243)"/><line class="b" x1="9.928" transform="translate(155 405.243)"/><line class="b" x2="16.955" transform="translate(163.254 415.728)"/><line class="b" x2="73.062" transform="translate(187.906 415.059)"/><line class="b" x2="45.957" transform="translate(215.904 428.165)"/><circle class="b" cx="3.292" cy="3.292" r="3.292" transform="translate(216.488 443.776)"/><circle class="b" cx="3.292" cy="3.292" r="3.292" transform="translate(228.577 443.776)"/><circle class="b" cx="3.292" cy="3.292" r="3.292" transform="translate(240.666 443.776)"/><path class="c" d="M282.5,263" transform="translate(1.67 168.344)"/><path class="b" d="M373.833,365.98l12.047.558s0-8.812,8.366-3.9c0,0,6.358-19.074,18.851-5.02h24.54" transform="translate(-64.536 117.762)"/><path class="d" d="M385.88,366.537s0-8.812,8.366-3.9c0,0,6.358-19.074,18.851-5.02h7.467" transform="translate(-150.536 9.762)"/><path class="b" d="M111.667,219.045h8.923s1.339-6.246,6.023-2.677c0,0,4.016-13.608,13.385-3.793l117.932.442a3.8,3.8,0,0,1,2.177.7" transform="translate(58.169 186.198)"/><path class="e" d="M74.408,59.362a4.7,4.7,0,0,0-.966-3.035h0L59.923,35.221a5.758,5.758,0,0,0-9.656,0L36.748,56.327a5.487,5.487,0,0,0-.138,5.794,5.629,5.629,0,0,0,4.966,2.9H68.614a5.629,5.629,0,0,0,4.966-2.9A4.974,4.974,0,0,0,74.408,59.362Zm-3.863,1.1a2.2,2.2,0,0,1-1.931,1.1h-26.9a2.2,2.2,0,0,1-1.931-1.1,2.128,2.128,0,0,1,.138-2.207L53.439,37.152a2.148,2.148,0,0,1,3.587,0L70.545,58.258a1.486,1.486,0,0,1,.276,1.1A3.246,3.246,0,0,1,70.545,60.466Z" transform="translate(234.765 382.05)"/><rect class="e" width="3.449" height="3.173" transform="translate(288.204 436.998)"/><rect class="e" width="3.449" height="9.656" transform="translate(288.204 424.997)"/></g></svg>