<svg xmlns="http://www.w3.org/2000/svg" width="10" height="10" viewBox="0 0 10 10"><defs><style>.a{fill:#1a237e;}.b{fill:#fff;fill-rule:evenodd;}</style></defs><g transform="translate(-3327.1 1490.9)"><rect class="a" width="10" height="10" transform="translate(3327.1 -1490.9)"/><g transform="translate(3328.594 -1487.494)"><path class="b" d="M1136.714,1932.587h-1.144a1.62,1.62,0,0,1-1.786-1.585c0-1.166.857-1.6,1.88-1.6h1.05v1.49h-.7v-.841h-.413c-.592,0-1.091.293-1.091.918,0,.725.489.972,1.14.972h1.063Z" transform="translate(-1133.784 -1929.4)"/><path class="b" d="M1698.978,1929.4h1.144a1.62,1.62,0,0,1,1.786,1.585c0,1.166-.857,1.6-1.88,1.6h-1.05v-1.49h.7v.841h.413c.592,0,1.09-.293,1.09-.918,0-.725-.489-.972-1.14-.972h-1.063Z" transform="translate(-1694.914 -1929.4)"/></g></g></svg>