<svg xmlns="http://www.w3.org/2000/svg" width="145.499" height="30" viewBox="0 0 145.499 30"><defs><style>.a,.b{fill:#1a237e;}.b{fill-rule:evenodd;}</style></defs><g transform="translate(-318.746 -1919.404)"><rect class="a" width="6.27" height="28.548" transform="translate(354.107 1920.13)"/><path class="b" d="M1160.032,1957.944h-10.25c-8.481,0-16-4.96-16-14.194,0-10.444,7.677-14.355,16.841-14.355h9.406v13.342h-6.27V1935.2h-3.7c-5.305,0-9.768,2.621-9.768,8.226,0,6.492,4.382,8.709,10.209,8.709h9.526Z" transform="translate(-765.058 -9.266)"/><path class="b" d="M2174.323,1957.95h6.27v-12.339h12.178v12.339h6.27V1929.4h-6.27v10.645h-12.178V1929.4h-6.27Z" transform="translate(-1734.796 -9.272)"/><path class="b" d="M1698.978,1929.4h10.249c8.481,0,16,4.959,16,14.193,0,10.445-7.677,14.355-16.842,14.355h-9.4V1944.6h6.27v7.535h3.7c5.305,0,9.767-2.621,9.767-8.226,0-6.492-4.381-8.709-10.209-8.709h-9.526Z" transform="translate(-1293.85 -9.266)"/><path class="b" d="M346.037,1931.742H334.9v5.806h5.1v4.637a12.25,12.25,0,0,1-5.908,1.411c-5.345,0-8.842-3.871-8.842-9.193s3.5-9.193,8.842-9.193a8.74,8.74,0,0,1,6.913,2.7l4.421-4.839c-2.854-2.661-6.832-3.669-11.334-3.669-8.882,0-15.353,5.847-15.353,15s6.471,15,15.353,15a25.45,25.45,0,0,0,11.937-2.742Z" transform="translate(0 0)"/></g></svg>