<svg xmlns="http://www.w3.org/2000/svg" width="97" height="20" viewBox="0 0 97 20"><defs><style>.a,.b{fill:#fff;}.b{fill-rule:evenodd;}</style></defs><g transform="translate(-51 -20)"><rect class="a" width="4.18" height="19.032" transform="translate(74.574 20.484)"/><path class="b" d="M1151.283,1948.427h-6.833c-5.654,0-10.665-3.306-10.665-9.462,0-6.962,5.118-9.57,11.228-9.57h6.27v8.895h-4.18v-5.023h-2.465c-3.537,0-6.512,1.747-6.512,5.484,0,4.328,2.921,5.806,6.806,5.806h6.351Z" transform="translate(-1049.464 -1908.912)"/><path class="b" d="M2174.323,1948.435h4.18v-8.226h8.119v8.226h4.18V1929.4h-4.18v7.1H2178.5v-7.1h-4.18Z" transform="translate(-2042.802 -1908.919)"/><path class="b" d="M1698.978,1929.4h6.833c5.654,0,10.665,3.306,10.665,9.462,0,6.963-5.118,9.57-11.228,9.57h-6.27v-8.895h4.18v5.023h2.465c3.537,0,6.511-1.747,6.511-5.484,0-4.328-2.921-5.806-6.806-5.806h-6.351Z" transform="translate(-1590.39 -1908.912)"/><path class="b" d="M336.94,1927.63h-7.422v3.871h3.4v3.091a8.161,8.161,0,0,1-3.939.941c-3.564,0-5.895-2.581-5.895-6.129s2.331-6.129,5.895-6.129a5.827,5.827,0,0,1,4.609,1.8l2.947-3.226c-1.9-1.774-4.555-2.446-7.556-2.446-5.922,0-10.236,3.9-10.236,10s4.314,10,10.236,10a16.965,16.965,0,0,0,7.958-1.828Z" transform="translate(-267.746 -1899.405)"/></g></svg>