<svg xmlns="http://www.w3.org/2000/svg" width="17.106" height="17.106" viewBox="0 0 17.106 17.106"><defs><style>.a{fill:gray;fill-rule:evenodd;}.b{fill:none;stroke:gray;stroke-miterlimit:10;stroke-width:0.5px;}</style></defs><g transform="translate(-322.863 -715.378)"><path class="a" d="M332.536,721.278a1.687,1.687,0,0,0,.393-1.246,1.8,1.8,0,0,0-1.126.6,1.632,1.632,0,0,0-.393,1.212,1.483,1.483,0,0,0,1.126-.563Zm.973,2.9a1.562,1.562,0,0,1,.171-.785,1.905,1.905,0,0,1,.648-.7,1.736,1.736,0,0,0-1.4-.768c-.6-.068-1.16.358-1.468.358s-.768-.358-1.262-.341a1.848,1.848,0,0,0-1.587.972,2.3,2.3,0,0,0-.222.6,4.463,4.463,0,0,0,.717,3.327c.307.478.7,1.007,1.194.99s.682-.324,1.263-.324.751.324,1.262.307c.53,0,.854-.478,1.178-.956a4.942,4.942,0,0,0,.529-1.109,1.672,1.672,0,0,1-1.024-1.569Z"/><rect class="b" width="16.606" height="16.606" rx="2" transform="translate(323.113 715.628)"/></g></svg>