<svg xmlns="http://www.w3.org/2000/svg" width="17.106" height="17.106" viewBox="0 0 17.106 17.106"><defs><style>.a{fill:none;stroke:gray;stroke-miterlimit:10;stroke-width:0.5px;}.b{fill:gray;}</style></defs><g transform="translate(-210.25 -739.25)"><rect class="a" width="16.606" height="16.606" rx="2" transform="translate(210.5 739.5)"/><path class="b" d="M6.828,0H1.172A1.173,1.173,0,0,0,0,1.172V6.828A1.173,1.173,0,0,0,1.172,8H3.531V5.172H2.594V3.766h.938V2.813A1.408,1.408,0,0,1,4.938,1.406H6.359V2.813H4.938v.953H6.359L6.125,5.172H4.938V8H6.828A1.173,1.173,0,0,0,8,6.828V1.172A1.173,1.173,0,0,0,6.828,0Zm0,0" transform="translate(215 744)"/></g></svg>