<svg xmlns="http://www.w3.org/2000/svg" width="17.106" height="17.106" viewBox="0 0 17.106 17.106"><defs><style>.a{fill:gray;}.b{fill:none;stroke:gray;stroke-miterlimit:10;stroke-width:0.5px;}</style></defs><g transform="translate(-442.428 -715.583)"><path class="a" d="M448.152,724.205a2.439,2.439,0,0,1,.249-1.139,1.579,1.579,0,0,1,1.063-.842,2,2,0,0,1,1.374.121,1.537,1.537,0,0,1,.791.861,2.646,2.646,0,0,1,0,1.992,1.581,1.581,0,0,1-1.321,1.021,2.066,2.066,0,0,1-1.025-.1,1.567,1.567,0,0,1-.865-.757A2.423,2.423,0,0,1,448.152,724.205Zm.621-.006-.019,0a5.3,5.3,0,0,0,.1.594,1.108,1.108,0,0,0,.932.868,1.131,1.131,0,0,0,1.284-.757,2.188,2.188,0,0,0,.073-1.154,1.357,1.357,0,0,0-.295-.649,1.073,1.073,0,0,0-.854-.38,1.084,1.084,0,0,0-1,.548A1.817,1.817,0,0,0,448.773,724.2Z"/><path class="a" d="M455.382,723.245h-.571a2.175,2.175,0,0,0-.124-.261.73.73,0,0,0-.547-.3,1.142,1.142,0,0,0-.6.066.581.581,0,0,0-.314.267.456.456,0,0,0,.231.647,3.585,3.585,0,0,0,.654.2,6.752,6.752,0,0,1,.676.2.956.956,0,0,1,.632,1.165,1.057,1.057,0,0,1-.726.854,2.016,2.016,0,0,1-1.564-.033,1.094,1.094,0,0,1-.665-.861c0-.025-.006-.05-.008-.074s0-.022,0-.038h.591c.013.044.023.09.04.133a.655.655,0,0,0,.4.377,1.276,1.276,0,0,0,.949,0,.582.582,0,0,0,.375-.378.484.484,0,0,0-.291-.578,3.489,3.489,0,0,0-.654-.2,6.49,6.49,0,0,1-.719-.221.89.89,0,0,1-.577-.742,1.075,1.075,0,0,1,.7-1.205,1.768,1.768,0,0,1,1.46.036,1.09,1.09,0,0,1,.636.822C455.376,723.161,455.378,723.2,455.382,723.245Z"/><path class="a" d="M446.557,723.5h.672v2.717h-.672Z"/><path class="a" d="M446.892,722.743a.358.358,0,1,1,.379-.355A.364.364,0,0,1,446.892,722.743Z"/><rect class="b" width="16.606" height="16.606" rx="2" transform="translate(442.678 715.833)"/></g></svg>