<svg xmlns="http://www.w3.org/2000/svg" width="17.106" height="17.106" viewBox="0 0 17.106 17.106"><defs><style>.a{fill:none;stroke:gray;stroke-miterlimit:10;stroke-width:0.5px;}.b{fill:gray;}</style></defs><g transform="translate(-237.428 -739.583)"><rect class="a" width="16.606" height="16.606" rx="2" transform="translate(237.678 739.833)"/><g transform="translate(231.534 732.993)"><path class="b" d="M26.85,24.71h1.56v.849c.138-.115.224-.187.309-.26a2.229,2.229,0,0,1,2.141-.434,1.337,1.337,0,0,1,1.056,1.355c.034,1.283.009,2.568.009,3.88h-1.6c0-.073,0-.161,0-.25,0-.837,0-1.674,0-2.511a2.5,2.5,0,0,0-.018-.379.722.722,0,0,0-.764-.692c-.828-.047-1.05.163-1.05.99,0,.937,0,1.875,0,2.84H26.85Z" transform="translate(-13.262 -11.092)"/><path class="b" d="M10.888,24.713h1.621V30.1H10.888Z" transform="translate(-0.342 -11.095)"/><path class="b" d="M11.383,11.007a.9.9,0,1,1-.917.885A.9.9,0,0,1,11.383,11.007Z" transform="translate(0 0)"/></g></g></svg>