<svg xmlns="http://www.w3.org/2000/svg" width="17.106" height="17.106" viewBox="0 0 17.106 17.106"><defs><style>.a{fill:none;stroke:gray;stroke-miterlimit:10;stroke-width:0.5px;}.b{fill:gray;}</style></defs><g transform="translate(-237.428 -739.583)"><rect class="a" width="16.606" height="16.606" rx="2" transform="translate(237.678 739.833)"/><g transform="translate(235 733)"><path class="b" d="M8.947,17.066a2.1,2.1,0,0,1-1.873-1.408,2.907,2.907,0,0,0,.843-.046A2.1,2.1,0,0,1,6.622,14.6,1.878,1.878,0,0,1,6.371,13.6a2,2,0,0,0,.857.237,2.064,2.064,0,0,1-.841-1.669,1.931,1.931,0,0,1,.264-1c.184.18.366.361.551.538a5.6,5.6,0,0,0,3.124,1.5c.149.022.3.032.45.047a.158.158,0,0,0,.04-.006c0-.034,0-.067-.008-.1a2.043,2.043,0,0,1,.364-1.535,1.982,1.982,0,0,1,1.837-.826,1.888,1.888,0,0,1,1.149.505.289.289,0,0,0,.324.076q.432-.162.862-.328c.072-.027.141-.061.234-.1a2.4,2.4,0,0,1-.79,1.069,4.13,4.13,0,0,0,1.02-.256l.015.02c-.042.059-.083.12-.127.176a4.478,4.478,0,0,1-.754.754.194.194,0,0,0-.085.161,10.7,10.7,0,0,1-.1,1.158A5.736,5.736,0,0,1,12,18.042a5.135,5.135,0,0,1-2.677.739,6.975,6.975,0,0,1-1.315-.074,6.016,6.016,0,0,1-1.93-.744.129.129,0,0,1-.047-.047,5.547,5.547,0,0,0,1.526-.154A4.374,4.374,0,0,0,8.947,17.066Z" transform="translate(0 0)"/></g></g></svg>